HIERARCHY
ROOT Hips
{
	OFFSET -3.958830 18.904000 13.208200
	CHANNELS 6 Xposition Yposition Zposition Zrotation Yrotation Xrotation 
	JOINT LHipJoint
	{
		OFFSET 0.000000 0.000000 0.000000
		CHANNELS 3 Zrotation Yrotation Xrotation
		JOINT LeftUpLeg
		{
			OFFSET 1.800000 -1.400000 0.085000
			CHANNELS 3 Zrotation Yrotation Xrotation
			JOINT LeftLeg
			{
				OFFSET 2.215000 -6.000000 0.000000
				CHANNELS 3 Zrotation Yrotation Xrotation
				JOINT LeftFoot
				{
					OFFSET 2.500000 -6.900000 0.000000
					CHANNELS 3 Zrotation Yrotation Xrotation
					JOINT LeftToeBase
					{
						OFFSET 0.200000 -0.500000 1.950000
						CHANNELS 3 Zrotation Yrotation Xrotation
						End Site
						{
							OFFSET 0.000000 0.000000 0.000000
						}
					}
				}
			}
		}
	}
	JOINT RHipJoint
	{
		OFFSET 0.000000 0.000000 0.000000
		CHANNELS 3 Zrotation Yrotation Xrotation
		JOINT RightUpLeg
		{
			OFFSET -1.800000 -1.400000 0.085000
			CHANNELS 3 Zrotation Yrotation Xrotation
			JOINT RightLeg
			{
				OFFSET -2.215000 -6.000000 0.000000
				CHANNELS 3 Zrotation Yrotation Xrotation
				JOINT RightFoot
				{
					OFFSET -2.500000 -6.900000 0.000000
					CHANNELS 3 Zrotation Yrotation Xrotation
					JOINT RightToeBase
					{
						OFFSET -0.200000 -0.500000 1.950000
						CHANNELS 3 Zrotation Yrotation Xrotation
						End Site
						{
							OFFSET 0.000000 0.000000 0.000000
						}
					}
				}
			}
		}
	}
	JOINT LowerBack
	{
		OFFSET 0.000000 0.000000 0.000000
		CHANNELS 3 Zrotation Yrotation Xrotation
		JOINT Spine
		{
			OFFSET -0.087000 1.940000 -0.288900
			CHANNELS 3 Zrotation Yrotation Xrotation
			JOINT Spine1
			{
				OFFSET 0.000000 1.950000 0.060000
				CHANNELS 3 Zrotation Yrotation Xrotation
				JOINT Neck
				{
					OFFSET 0.000000 0.000000 0.000000
					CHANNELS 3 Zrotation Yrotation Xrotation
					JOINT Neck1
					{
						OFFSET 0.000000 1.600000 0.340000
						CHANNELS 3 Zrotation Yrotation Xrotation
						JOINT Head
						{
							OFFSET 0.000000 1.667000 -0.240000
							CHANNELS 3 Zrotation Yrotation Xrotation
							End Site
							{
								OFFSET 0.000000 0.000000 0.000000
							}
						}
					}
				}
				JOINT LeftShoulder
				{
					OFFSET 0.000000 0.000000 0.000000
					CHANNELS 3 Zrotation Yrotation Xrotation
					JOINT LeftArm
					{
						OFFSET 2.700000 1.550000 -0.730000
						CHANNELS 3 Zrotation Yrotation Xrotation
						JOINT LeftForeArm
						{
							OFFSET 5.450000 0.000000 0.000000
							CHANNELS 3 Zrotation Yrotation Xrotation
							JOINT LeftHand
							{
								OFFSET 3.450000 0.000000 0.000000
								CHANNELS 3 Zrotation Yrotation Xrotation
								JOINT LeftHandIndex1
								{
									OFFSET 0.750000 0.000000 0.000000
									CHANNELS 3 Zrotation Yrotation Xrotation
									End Site
									{
										OFFSET 0.000000 0.000000 0.000000
									}
								}
							}
						}
					}
				}
				JOINT RightShoulder
				{
					OFFSET 0.000000 0.000000 0.000000
					CHANNELS 3 Zrotation Yrotation Xrotation
					JOINT RightArm
					{
						OFFSET -2.700000 1.550000 -0.730000
						CHANNELS 3 Zrotation Yrotation Xrotation
						JOINT RightForeArm
						{
							OFFSET -5.450000 0.000000 0.000000
							CHANNELS 3 Zrotation Yrotation Xrotation
							JOINT RightHand
							{
								OFFSET -3.450000 0.000000 0.000000
								CHANNELS 3 Zrotation Yrotation Xrotation
								JOINT RightHandIndex1
								{
									OFFSET -0.750000 0.000000 0.000000
									CHANNELS 3 Zrotation Yrotation Xrotation
									End Site
									{
										OFFSET 0.000000 0.000000 0.000000
									}
								}
							}
						}
					}
				}
			}
		}
	}
}
MOTION
Frames: 6
Frame Time: 0.016667
-0.322040 16.241490 -2.905630 -5.459453 9.997521 3.084847 -15.413240 11.385407 4.960734 21.117541 -3.043623 -41.703312 -6.126041 15.350698 47.784995 0.311139 10.103856 1.128792 0.357480 -0.198850 0.222000 18.417657 -9.713337 2.850002 -12.772743 6.696019 -35.447840 -2.294711 -7.915079 49.863235 -0.677985 -7.108045 2.114597 -0.078020 0.360750 0.136430 -3.546184 -0.873303 -8.774584 7.261084 0.515378 23.545516 -4.462088 3.046309 -0.384195 1.713188 -2.931796 -10.525700 -4.306026 -3.301904 21.902803 4.329870 -6.247020 -10.668900 -20.830287 -3.132738 3.581583 -50.865802 9.493642 -17.924043 19.150098 -73.187176 -17.532290 -3.308860 3.008891 0.583580 0.124220 -0.276230 0.257840 16.833394 8.691386 8.473288 51.450725 -3.997288 -11.934733 110.531076 63.351409 62.583962 2.371883 -1.441928 -0.292820 0.205820 -0.005170 -0.272190 
-0.354050 16.195200 -2.922070 -5.329827 10.709388 2.938024 -15.433874 11.266707 5.092638 21.512212 -3.144098 -42.798526 -5.971924 15.719120 49.191939 0.375917 10.364527 1.042919 0.368800 -0.185460 0.211430 18.424739 -9.624721 2.837247 -13.566466 6.653040 -35.538009 -1.569603 -8.599804 50.810998 -0.729151 -7.341372 2.030278 -0.076370 0.357470 0.133720 -3.527604 -0.887390 -8.860589 6.955947 0.605097 24.664581 -4.430558 3.191588 -0.937254 1.511534 -3.343047 -10.515655 -4.956907 -3.416620 21.881693 6.000010 -7.203310 -11.602070 -20.508358 -2.800980 3.345900 -50.931364 9.239812 -18.060406 24.850342 -73.337851 -21.147347 -3.259693 2.919671 0.592210 0.099850 -0.269510 0.262960 16.906246 8.833167 8.623819 49.682135 -4.610708 -11.662599 112.856799 61.833666 63.638090 2.318378 -1.541309 -0.282190 0.208800 -0.005350 -0.258310 
-0.403360 16.124230 -2.944130 -5.522740 12.013650 2.502638 -15.455735 11.059061 5.293821 22.532116 -3.201254 -44.330651 -5.794807 16.298661 51.270852 0.449010 10.778793 0.915650 0.371860 -0.178330 0.208440 18.445789 -9.477133 2.840806 -14.725535 6.629873 -35.450624 0.499191 -10.240649 52.067550 -0.823146 -7.760562 1.889709 -0.070120 0.356430 0.111880 -3.528751 -0.858473 -9.012761 7.219500 0.510036 26.485173 -4.953533 3.375059 -2.022889 1.534324 -3.542493 -10.324402 -5.265215 -4.069728 22.031084 7.388740 -8.194810 -12.982550 -21.136505 -2.469207 2.756143 -50.029974 9.056293 -18.168527 35.909938 -73.443215 -28.041418 -3.183447 2.647484 0.619560 0.072460 -0.260180 0.264440 17.358926 8.858690 8.843642 46.981388 -5.789416 -11.171530 114.767923 59.458370 63.343517 2.253113 -1.659718 -0.297050 0.241140 -0.002800 -0.255550 
-0.464270 16.051480 -2.947190 -5.810711 13.367980 1.440093 -15.477837 10.942209 5.392992 23.417201 -3.214498 -45.182987 -4.803422 16.488302 53.658472 0.499645 11.132616 0.801628 0.360140 -0.203580 0.219540 18.446407 -9.349948 2.884630 -16.110894 6.638486 -34.842653 3.452251 -12.597653 53.623132 -0.965254 -8.379516 1.694956 -0.082860 0.342330 0.094080 -3.500921 -0.872746 -9.162118 7.326514 0.439005 28.722059 -5.621447 3.559724 -3.333025 1.837227 -3.217014 -10.351254 -4.873324 -4.813615 22.895717 8.035850 -8.653310 -13.831600 -22.170255 -2.725105 2.332416 -48.769846 9.468046 -18.460217 48.709952 -73.076914 -35.834859 -3.091896 2.228825 0.663270 0.051220 -0.250910 0.248120 17.613759 9.197967 9.300168 43.929695 -7.238100 -10.639931 115.332876 56.264247 60.492274 2.188869 -1.779076 -0.321090 0.258960 0.008720 -0.278010 
-0.533070 15.982290 -2.921410 -5.778412 14.732438 0.298394 -15.491191 10.885049 5.412096 23.881710 -3.215134 -45.639070 -3.427702 16.404870 55.860400 0.536573 11.410701 0.729909 0.313370 -0.268820 0.198250 18.445961 -9.251039 2.942703 -17.423766 6.686102 -34.155442 5.761530 -14.758132 55.567924 -1.112052 -9.043600 1.505185 -0.105220 0.361000 0.050470 -3.483137 -0.923425 -9.281838 6.992853 0.518603 30.272383 -5.966252 3.701681 -3.980669 1.813302 -3.275853 -10.642316 -5.266226 -5.243651 24.173729 9.147630 -9.600000 -13.738540 -22.401768 -3.461453 2.362293 -47.844494 10.052895 -18.717260 58.246341 -71.828876 -41.284573 -3.027498 1.824241 0.700020 0.037470 -0.266680 0.237460 17.858395 10.156567 9.838273 40.806822 -8.456714 -10.261708 114.386430 53.021189 55.871918 2.143467 -1.838342 -0.374400 0.309610 0.037210 -0.293330 
-0.590300 15.922020 -2.885060 -5.637009 16.264435 -1.595376 -15.490469 10.982819 5.326432 23.560694 -3.513686 -45.283047 -1.402322 15.689211 58.230728 0.617749 11.509517 0.693846 0.311100 -0.272640 0.198520 18.418968 -9.271722 2.965493 -18.776846 6.482957 -32.487524 7.988429 -16.854555 56.973681 -1.284667 -9.629865 1.328040 -0.136030 0.318140 0.049900 -3.464890 -1.025057 -9.349519 6.794752 0.588078 32.214700 -6.111976 3.896875 -4.226398 1.872383 -3.453866 -11.358684 -6.081843 -5.634811 26.320939 10.423270 -10.514640 -14.110250 -21.472382 -4.459662 2.651510 -48.436835 9.533019 -18.895468 60.784125 -69.326886 -41.394618 -2.984110 1.805781 0.727710 -0.004520 -0.230970 0.230240 16.872925 11.565731 10.697846 38.679931 -9.730452 -10.441535 113.171305 50.062526 50.901622 2.132427 -1.893172 -0.348620 0.283780 0.027950 -0.290850 
